<svg width="40" height="54" viewBox="0 0 40 54" fill="none" xmlns="http://www.w3.org/2000/svg">
<path d="M27.3737 8.01651C24.7949 5.41491 21.3489 4 17.6975 4C14.0462 4 10.6002 5.41491 8.0214 8.01651C5.41979 10.5953 4.00488 14.0413 4.00488 17.6927C4.00488 19.6781 4.66669 21.8461 5.9675 24.1967C6.5152 25.2464 7.22266 26.3419 8.04422 27.4601H8.06704C10.3491 30.5409 13.1105 33.211 15.0503 34.8998C16.5108 36.2006 18.8842 36.2006 20.3448 34.8998C22.2846 33.1882 25.0459 30.5409 27.3281 27.4829H27.3509C28.1953 26.3419 28.9027 25.2464 29.4504 24.1967C30.7512 21.8461 31.3902 19.6781 31.3902 17.6927C31.3902 14.0413 29.9753 10.5953 27.3737 8.01651ZM17.6975 22.2569C16.6478 22.2569 15.6208 21.8917 14.8221 21.1843C14.6852 21.1158 14.5939 21.0245 14.4798 20.9104C13.7495 20.203 13.2931 19.2901 13.2018 18.286C13.1561 18.1034 13.1333 17.8981 13.1333 17.6927C13.1333 16.4831 13.6126 15.3193 14.4798 14.4749C16.1914 12.7405 19.2037 12.7405 20.9153 14.4749C21.7825 15.3193 22.2618 16.4831 22.2618 17.6927C22.2618 17.8981 22.2389 18.1034 22.1933 18.3088C22.0792 19.2901 21.6228 20.203 20.9153 20.9104C20.8012 21.0245 20.7099 21.1158 20.573 21.1843C19.7743 21.8917 18.7473 22.2569 17.6975 22.2569Z" fill="#0A0B1A"/>
<path d="M17.6975 22.2569C16.6478 22.2569 15.6208 21.8917 14.8221 21.1843C14.6852 21.1158 14.5939 21.0245 14.4798 20.9104C13.7495 20.203 13.2931 19.2901 13.2018 18.286C13.1561 18.1034 13.1333 17.8981 13.1333 17.6927C13.1333 16.4831 13.6126 15.3193 14.4798 14.4749C16.1914 12.7405 19.2037 12.7405 20.9153 14.4749C21.7825 15.3193 22.2618 16.4831 22.2618 17.6927C22.2618 17.8981 22.2389 18.1034 22.1933 18.3088C22.0792 19.2901 21.6228 20.203 20.9153 20.9104C20.8012 21.0245 20.7099 21.1158 20.573 21.1843C19.7743 21.8917 18.7473 22.2569 17.6975 22.2569Z" fill="#ADFFDA"/>
<path d="M6.43245 28.6442L7.03185 29.4601H7.07654C9.33449 32.3457 11.8964 34.8051 13.7293 36.4014C15.9474 38.3684 19.4556 38.3667 21.6715 36.3964C23.491 34.7907 26.0537 32.35 28.314 29.4829H28.3589L28.9586 28.6726C29.841 27.4801 30.6056 26.3026 31.2121 25.1437C32.6177 22.5978 33.3902 20.1031 33.3902 17.6927C33.3902 13.5178 31.7694 9.56089 28.7878 6.60221C25.8292 3.62072 21.8723 2 17.6975 2C13.5227 2 9.56584 3.62075 6.60717 6.60229C3.62563 9.56096 2.00488 13.5178 2.00488 17.6927C2.00488 20.1143 2.80745 22.6111 4.20577 25.1437C4.81158 26.3013 5.57494 27.4771 6.43245 28.6442Z" stroke="#ADFFDA" stroke-width="4"/>
<path d="M25.9511 30.5471C25.9655 30.7206 25.9669 30.9071 25.967 31.1848C25.926 33.3527 25.0419 35.4254 23.5032 36.9457C21.9671 38.4635 19.8733 39.3123 17.6975 39.3123C15.5216 39.3123 13.4278 38.4635 11.8917 36.9457C10.353 35.4253 9.46891 33.3527 9.42798 31.1848C9.42803 30.9071 9.42943 30.7206 9.44389 30.5471L9.51109 29.7407L8.99871 29.1145C8.97792 29.0891 8.95722 29.0638 8.93661 29.0386C8.53684 28.5502 8.17328 28.106 7.85051 27.6503L7.82593 27.6156L7.79991 27.582C7.31263 26.9526 6.8775 26.2913 6.49572 25.655L4.30396 22.002L2.89353 26.0218C2.37358 27.5036 2.05857 29.0966 2.00589 30.7034L2.00584 30.7034L2.0055 30.7167C1.90118 34.7068 3.28456 38.5756 5.92526 41.5823L5.92524 41.5823L5.93099 41.5888C8.56887 44.5662 12.2523 46.4497 16.2295 46.8177C19.6164 47.1505 22.9824 46.3644 25.8578 44.6103L31.5897 50.3422C32.0677 50.8543 32.6545 51.1739 33.221 51.3482C33.8783 51.5504 34.5605 51.5571 35.2195 51.3683C35.8798 51.2015 36.4249 50.8595 36.8359 50.4896L36.9141 50.4192L36.9845 50.3409C37.3545 49.9299 37.6964 49.3849 37.8633 48.7245C38.0521 48.0655 38.0453 47.3834 37.8431 46.7261L35.9315 47.3142L37.8431 46.7261C37.6688 46.1596 37.3492 45.5728 36.8371 45.0947L31.1007 39.3583C32.8376 36.4937 33.6445 33.135 33.3137 29.745C33.2054 28.4384 32.9125 27.2008 32.4987 26.0368L31.0792 22.0445L28.8992 25.6778C28.5398 26.2768 28.0845 26.9216 27.5703 27.6146L27.5572 27.6323L27.5444 27.6503C27.1931 28.1463 26.8218 28.6207 26.4305 29.0737L25.8813 29.7097L25.9511 30.5471Z" fill="#0A0B1A" stroke="#ADFFDA" stroke-width="4"/>
<path d="M27.3737 8.01651C24.7949 5.41491 21.3489 4 17.6975 4C14.0462 4 10.6002 5.41491 8.0214 8.01651C5.41979 10.5953 4.00488 14.0413 4.00488 17.6927C4.00488 19.6781 4.66669 21.8461 5.9675 24.1967C6.5152 25.2464 7.22266 26.3419 8.04422 27.4601H8.06704C10.3491 30.5409 13.1105 33.211 15.0503 34.8998C16.5108 36.2006 18.8842 36.2006 20.3448 34.8998C22.2846 33.1882 25.0459 30.5409 27.3281 27.4829H27.3509C28.1953 26.3419 28.9027 25.2464 29.4504 24.1967C30.7512 21.8461 31.3902 19.6781 31.3902 17.6927C31.3902 14.0413 29.9753 10.5953 27.3737 8.01651ZM17.6975 22.2569C16.6478 22.2569 15.6208 21.8917 14.8221 21.1843C14.6852 21.1158 14.5939 21.0245 14.4798 20.9104C13.7495 20.203 13.2931 19.2901 13.2018 18.286C13.1561 18.1034 13.1333 17.8981 13.1333 17.6927C13.1333 16.4831 13.6126 15.3193 14.4798 14.4749C16.1914 12.7405 19.2037 12.7405 20.9153 14.4749C21.7825 15.3193 22.2618 16.4831 22.2618 17.6927C22.2618 17.8981 22.2389 18.1034 22.1933 18.3088C22.0792 19.2901 21.6228 20.203 20.9153 20.9104C20.8012 21.0245 20.7099 21.1158 20.573 21.1843C19.7743 21.8917 18.7473 22.2569 17.6975 22.2569Z" fill="#0A0B1A"/>
<path d="M35.9315 47.3143C35.8403 47.0176 35.6805 46.7438 35.4523 46.5384L28.5147 39.6008C30.637 36.8394 31.664 33.3934 31.3217 29.9246C31.2304 28.8064 30.9794 27.7338 30.6142 26.7068C30.2034 27.3915 29.7014 28.0989 29.1765 28.8064C28.7885 29.3541 28.3778 29.879 27.9442 30.381C27.967 30.6549 27.967 30.9287 27.967 31.2026C27.9213 33.8955 26.8259 36.4743 24.9089 38.3684C22.992 40.2626 20.3904 41.3123 17.6975 41.3123C15.0046 41.3123 12.403 40.2626 10.486 38.3684C8.56903 36.4743 7.47362 33.8955 7.42798 31.2026C7.42798 30.9287 7.42798 30.6549 7.4508 30.381C7.04002 29.879 6.60642 29.3541 6.21846 28.8064C5.67075 28.0989 5.19151 27.3687 4.78073 26.684C4.32431 27.9848 4.05046 29.3769 4.00481 30.769C3.91353 34.2606 5.12305 37.6382 7.42798 40.2626C9.73291 42.8642 12.9507 44.5073 16.4195 44.8268C19.8883 45.1691 23.3343 44.165 26.0956 42.0198L33.0333 48.9574C33.2386 49.1856 33.5125 49.3454 33.8092 49.4367C34.1059 49.5279 34.4025 49.5279 34.6992 49.4367C34.9959 49.3682 35.2697 49.2084 35.4979 49.0031C35.7033 48.7748 35.8631 48.501 35.9315 48.2043C36.0228 47.9076 36.0228 47.611 35.9315 47.3143Z" fill="#0A0B1A"/>
</svg>
