<svg width="279" height="68" viewBox="0 0 279 68" fill="none" xmlns="http://www.w3.org/2000/svg">
<path d="M116 20V19H115H67C57.6112 19 50 26.6112 50 36C50 45.3888 57.6112 53 67 53H115H116V52V20Z" fill="#0A0B1A" stroke="#FFFFFA" stroke-width="2"/>
<path d="M86.5598 29.2297C88.2663 28.4296 89.6713 28 91.2736 28C92.8759 28 94.5162 28.3928 96.8407 29.2297C100.186 31.032 101.189 32.6418 101.72 36.376C101.59 36.8331 100.995 37.1558 99.9387 37.3515C99.8876 37.3611 99.8353 37.3705 99.782 37.3793C99.5077 37.4249 98.9878 37.4488 98.341 37.459C98.0815 37.4631 97.8014 37.4648 97.5087 37.4648C97.1381 37.4648 96.7472 37.462 96.3511 37.4573C94.5561 37.4367 92.6558 37.3793 92.0851 37.3793C91.2263 37.3793 89.6806 38.6626 88.5849 39.1101C88.3537 39.2049 88.1423 39.2621 87.9617 39.2621H87.948C87.6346 39.2568 87.4128 39.1634 87.2275 39.0257C86.8031 38.711 86.5711 38.164 85.8726 37.9153C85.8192 37.9128 85.7684 37.9114 85.7197 37.9114C85.2156 37.9114 84.9621 38.0524 84.5943 38.3963L84.1812 39.657L83.7971 40.8288C83.3089 40.679 83.1567 39.5031 83 36.376C83.2006 32.6322 84.0135 31.0944 86.5598 29.2297ZM84.1529 37.3284C84.5671 37.0104 85.0314 36.812 85.7197 36.812C85.7852 36.812 85.8541 36.8136 85.9251 36.8172L86.0878 36.8249L86.2415 36.8796C86.9559 37.1341 87.3669 37.5912 87.6387 37.8938C87.7327 37.9985 87.8215 38.0975 87.8834 38.1434C87.8996 38.1555 87.9073 38.161 87.9535 38.1624C87.9719 38.1596 88.0373 38.1464 88.1676 38.0928H88.1684L88.1693 38.0923C88.5189 37.9493 88.9904 37.6618 89.4464 37.3837C90.3766 36.8161 91.2555 36.2798 92.0851 36.2798C92.3534 36.2798 92.882 36.2914 93.5511 36.3062C94.3658 36.3244 95.3799 36.3466 96.3637 36.3579C96.7827 36.3629 97.1678 36.3653 97.5087 36.3653C97.8077 36.3653 98.0821 36.3634 98.3237 36.3596C99.2083 36.3458 99.5121 36.3095 99.6017 36.2947H99.603C99.6294 36.2903 99.6558 36.2856 99.6811 36.2809L99.7383 36.2705C100.158 36.1927 100.411 36.1064 100.557 36.0421C100.304 34.5054 99.9571 33.4867 99.4227 32.6913C98.8257 31.8027 97.9166 31.0658 96.3907 30.2363C94.1943 29.4504 92.6134 29.0994 91.2733 29.0994H91.2731C89.9871 29.0994 88.7787 29.413 87.1236 30.1799C85.9619 31.041 85.3093 31.745 84.8824 32.5926C84.4335 33.4843 84.199 34.6189 84.1009 36.3785C84.1188 36.7295 84.1358 37.044 84.1529 37.3284Z" fill="#ADFFDA"/>
<path d="M91.6956 40.1038C91.5142 40.0197 91.3256 39.9325 91.1272 39.8482L95.2188 39.0284L94.614 39.9079L91.6956 40.1038Z" fill="#ADFFDA"/>
<path fill-rule="evenodd" clip-rule="evenodd" d="M84.3197 41L85.0715 38.7057C85.3027 38.5048 85.4346 38.4611 85.7197 38.4611C85.7329 38.4611 85.7466 38.4611 85.7606 38.4614C86.0377 38.5798 86.2123 38.7739 86.4116 38.996L86.4134 38.9979C86.5574 39.1581 86.7062 39.3236 86.9001 39.4671C86.9292 39.4885 86.9583 39.5091 86.988 39.5284C86.22 39.7678 85.2188 40.5385 85.2188 40.5385L84.3197 41ZM89.3392 39.3574C90.0291 39.4296 90.611 39.6289 91.1272 39.8482L95.2188 39.0284C95.2188 39.0284 95.5599 38.3407 95.8428 38.0004C95.0151 37.988 94.1956 37.9702 93.5145 37.9551L93.5025 37.9548C92.8493 37.9404 92.3334 37.929 92.085 37.929C91.7196 37.929 90.9381 38.4054 90.3089 38.789L90.3054 38.7912C89.984 38.9874 89.6558 39.1875 89.3392 39.3574ZM94.614 39.9079L91.6956 40.1038L91.7154 40.1129C92.2948 40.3816 92.8001 40.616 93.3102 40.616C93.3965 40.616 93.4826 40.6094 93.5694 40.5951C94.1868 40.459 94.614 39.9079 94.614 39.9079Z" fill="#ADFFDA"/>
<path d="M98.5329 32.3703C98.5329 32.3703 99.141 32.9436 99.2537 33.4304C99.3666 33.9172 99.197 34.0736 98.9414 34.1327C98.8908 34.1445 98.8408 34.1514 98.7921 34.1514C98.5942 34.1514 98.4188 34.0354 98.3281 33.6448C98.2151 33.158 98.5326 32.37 98.5326 32.37L98.5329 32.3703Z" fill="#ADFFDA"/>
<path d="M88.8989 29.8366C88.8989 29.8366 88.6872 30.6593 88.3076 30.9844C88.1297 31.1367 87.9843 31.1963 87.862 31.1963C87.7234 31.1963 87.6151 31.1194 87.5244 31.0136C87.3537 30.8143 87.31 30.5878 87.6896 30.2629C88.0692 29.938 88.8989 29.8369 88.8989 29.8369V29.8366Z" fill="#ADFFDA"/>
<path d="M89.7986 29.8619C89.7986 29.8619 90.3981 30.4638 90.4836 30.9561C90.5694 31.4484 90.3673 31.5993 90.1089 31.6443C90.0691 31.6512 90.03 31.6553 89.9924 31.6553C89.7865 31.6553 89.6202 31.5352 89.5479 31.1191C89.4621 30.6268 89.7986 29.8619 89.7986 29.8619Z" fill="#ADFFDA"/>
<path d="M91.8566 29.5474C92.018 29.5474 92.1774 29.5647 92.3094 29.6128C92.7789 29.7841 92.8088 30.0345 92.719 30.2807C92.6557 30.4536 92.5505 30.5787 92.3308 30.5787C92.2376 30.5787 92.1238 30.5562 91.9836 30.505C91.5141 30.3338 91.019 29.6607 91.019 29.6607C91.019 29.6607 91.4435 29.5474 91.8566 29.5474Z" fill="#ADFFDA"/>
<path d="M96.1347 32.4882C96.1347 32.4882 96.6078 33.1937 96.5976 33.6934C96.5877 34.1816 96.3706 34.2973 96.1157 34.2973C96.11 34.2973 96.1039 34.2973 96.0981 34.2973C95.8359 34.2921 95.6377 34.1739 95.6479 33.6745C95.658 33.175 96.1347 32.4884 96.1347 32.4884V32.4882Z" fill="#ADFFDA"/>
<path d="M79.1585 29.2297C77.4521 28.4296 76.0473 28 74.4452 28C72.843 28 71.203 28.3928 68.8787 29.2297C65.5337 31.032 64.5313 32.6418 64 36.376C64.1295 36.8331 64.7245 37.1558 65.7811 37.3515C65.8322 37.3611 65.8844 37.3705 65.9378 37.3793C66.2121 37.4249 66.7318 37.4488 67.3786 37.459C67.638 37.4631 67.9181 37.4648 68.2108 37.4648C68.5813 37.4648 68.9722 37.462 69.3683 37.4573C71.1631 37.4367 73.0632 37.3793 73.6338 37.3793C74.4925 37.3793 76.038 38.6626 77.1336 39.1101C77.3647 39.2049 77.5761 39.2621 77.7567 39.2621H77.7704C78.0838 39.2568 78.3056 39.1634 78.4908 39.0257C78.9152 38.711 79.1472 38.164 79.8456 37.9153C79.8989 37.9128 79.9498 37.9114 79.9984 37.9114C80.5025 37.9114 80.7559 38.0524 81.1237 38.3963L81.5368 39.657L81.9208 40.8288C82.4089 40.679 82.5612 39.5031 82.7179 36.376C82.5172 32.6322 81.7045 31.0944 79.1585 29.2297ZM81.5651 37.3284C81.1509 37.0104 80.6867 36.812 79.9984 36.812C79.933 36.812 79.864 36.8136 79.7931 36.8172L79.6304 36.8249L79.4768 36.8796C78.7624 37.1341 78.3515 37.5912 78.0796 37.8938C77.9856 37.9985 77.8969 38.0975 77.835 38.1434C77.8188 38.1555 77.8111 38.161 77.7649 38.1624C77.7465 38.1596 77.6811 38.1464 77.5508 38.0928H77.55L77.5492 38.0923C77.1995 37.9493 76.7282 37.6618 76.2722 37.3837C75.3421 36.8161 74.4633 36.2798 73.6338 36.2798C73.3655 36.2798 72.837 36.2914 72.168 36.3062C71.3533 36.3244 70.3393 36.3466 69.3556 36.3579C68.9367 36.3629 68.5517 36.3653 68.2108 36.3653C67.9118 36.3653 67.6375 36.3634 67.3959 36.3596C66.5114 36.3458 66.2077 36.3095 66.1181 36.2947H66.1167C66.0903 36.2903 66.0639 36.2856 66.0386 36.2809L65.9815 36.2705C65.5615 36.1927 65.3086 36.1064 65.1632 36.0421C65.4158 34.5054 65.7627 33.4867 66.297 32.6913C66.894 31.8027 67.8029 31.0658 69.3287 30.2363C71.5248 29.4504 73.1055 29.0994 74.4455 29.0994H74.4457C75.7315 29.0994 76.9398 29.413 78.5947 30.1799C79.7563 31.041 80.4088 31.745 80.8357 32.5926C81.2845 33.4843 81.519 34.6189 81.6171 36.3785C81.5992 36.7295 81.5822 37.044 81.5651 37.3284Z" fill="#ADFFDA"/>
<path d="M74.0232 40.1038C74.2046 40.0197 74.3932 39.9325 74.5916 39.8482L70.5005 39.0284L71.1051 39.9079L74.0232 40.1038Z" fill="#ADFFDA"/>
<path fill-rule="evenodd" clip-rule="evenodd" d="M81.3983 41L80.6466 38.7057C80.4154 38.5048 80.2835 38.4611 79.9985 38.4611C79.9853 38.4611 79.9715 38.4611 79.9575 38.4614C79.6805 38.5798 79.5059 38.7739 79.3067 38.996L79.3049 38.9979C79.1609 39.1581 79.012 39.3236 78.8182 39.4671C78.7891 39.4885 78.76 39.5091 78.7303 39.5284C79.4982 39.7678 80.4993 40.5385 80.4993 40.5385L81.3983 41ZM76.3794 39.3574C75.6896 39.4296 75.1077 39.6289 74.5916 39.8482L70.5005 39.0284C70.5005 39.0284 70.1594 38.3407 69.8765 38.0004C70.7041 37.988 71.5235 37.9702 72.2046 37.9551L72.2165 37.9548C72.8697 37.9404 73.3855 37.929 73.6338 37.929C73.9993 37.929 74.7806 38.4054 75.4097 38.789L75.4133 38.7912C75.7346 38.9874 76.0628 39.1875 76.3794 39.3574ZM71.1051 39.9079L74.0232 40.1038L74.0035 40.1129C73.4241 40.3816 72.9189 40.616 72.4088 40.616C72.3225 40.616 72.2365 40.6094 72.1496 40.5951C71.5323 40.459 71.1051 39.9079 71.1051 39.9079Z" fill="#ADFFDA"/>
<path d="M67.1867 32.3703C67.1867 32.3703 66.5787 32.9436 66.466 33.4304C66.353 33.9172 66.5226 34.0736 66.7782 34.1327C66.8288 34.1445 66.8788 34.1514 66.9275 34.1514C67.1254 34.1514 67.3007 34.0354 67.3914 33.6448C67.5044 33.158 67.1869 32.37 67.1869 32.37L67.1867 32.3703Z" fill="#ADFFDA"/>
<path d="M76.8197 29.8366C76.8197 29.8366 77.0313 30.6593 77.4109 30.9844C77.5888 31.1367 77.7342 31.1963 77.8565 31.1963C77.995 31.1963 78.1033 31.1194 78.194 31.0136C78.3647 30.8143 78.4084 30.5878 78.0288 30.2629C77.6492 29.938 76.8197 29.8369 76.8197 29.8369V29.8366Z" fill="#ADFFDA"/>
<path d="M75.92 29.8619C75.92 29.8619 75.3206 30.4638 75.2351 30.9561C75.1493 31.4484 75.3514 31.5993 75.6097 31.6443C75.6496 31.6512 75.6886 31.6553 75.7263 31.6553C75.9321 31.6553 76.0984 31.5352 76.1707 31.1191C76.2565 30.6268 75.92 29.8619 75.92 29.8619Z" fill="#ADFFDA"/>
<path d="M73.8622 29.5474C73.7009 29.5474 73.5414 29.5647 73.4095 29.6128C72.9401 29.7841 72.9101 30.0345 73 30.2807C73.0632 30.4536 73.1685 30.5787 73.3881 30.5787C73.4812 30.5787 73.595 30.5562 73.7352 30.505C74.2047 30.3338 74.6997 29.6607 74.6997 29.6607C74.6997 29.6607 74.2753 29.5474 73.8622 29.5474Z" fill="#ADFFDA"/>
<path d="M69.5846 32.4882C69.5846 32.4882 69.1116 33.1937 69.1217 33.6934C69.1316 34.1816 69.3488 34.2973 69.6036 34.2973C69.6093 34.2973 69.6154 34.2973 69.6212 34.2973C69.8834 34.2921 70.0816 34.1739 70.0714 33.6745C70.0612 33.175 69.5846 32.4884 69.5846 32.4884V32.4882Z" fill="#ADFFDA"/>
<path d="M88.9429 27.6081C86.7116 26.5618 84.8745 26 82.7794 26C80.6842 26 78.5395 26.5136 75.5002 27.6081C71.1259 29.9649 69.815 32.0701 69.1202 36.9533C69.2895 37.5511 70.0677 37.973 71.4494 38.229C71.5162 38.2415 71.5845 38.2538 71.6542 38.2653C72.0129 38.3249 72.6926 38.3562 73.5384 38.3695C73.8777 38.3749 74.2439 38.377 74.6267 38.377C75.1113 38.377 75.6224 38.3735 76.1403 38.3673C78.4874 38.3404 80.9722 38.2653 81.7183 38.2653C82.8412 38.2653 84.8623 39.9435 86.295 40.5286C86.5973 40.6526 86.8737 40.7274 87.1098 40.7274H87.1278C87.5375 40.7205 87.8276 40.5983 88.0699 40.4183C88.6248 40.0067 88.9282 39.2914 89.8415 38.9662C89.9112 38.9629 89.9777 38.9611 90.0413 38.9611C90.7005 38.9611 91.0319 39.1455 91.5129 39.5952L92.0531 41.2439L92.5552 42.7761C93.1936 42.5802 93.3927 41.0426 93.5976 36.9533C93.3352 32.0575 92.2723 30.0465 88.9429 27.6081ZM92.0901 38.1988C91.5484 37.7829 90.9414 37.5234 90.0413 37.5234C89.9558 37.5234 89.8656 37.5256 89.7729 37.5302L89.5601 37.5403L89.3591 37.6118C88.425 37.9446 87.8876 38.5424 87.5322 38.9381L87.5314 38.939C87.4088 39.0756 87.293 39.2046 87.2123 39.2645C87.191 39.2803 87.181 39.2875 87.1206 39.2893C87.0965 39.2857 87.011 39.2684 86.8406 39.1983H86.8395L86.8384 39.1976C86.3813 39.0107 85.7648 38.6348 85.1685 38.271C83.9522 37.5288 82.8031 36.8275 81.7183 36.8275C81.3675 36.8275 80.6763 36.8426 79.8015 36.862C78.7361 36.8858 77.4102 36.9149 76.1238 36.9296C75.576 36.9361 75.0724 36.9393 74.6267 36.9393C74.2357 36.9393 73.877 36.9368 73.561 36.9318C72.4044 36.9138 72.0072 36.8664 71.89 36.8469H71.8882C71.8537 36.8412 71.8192 36.8351 71.7861 36.829L71.7114 36.8153C71.1622 36.7136 70.8315 36.6007 70.6414 36.5166C70.9717 34.507 71.4253 33.175 72.124 32.1348C72.9047 30.9727 74.0933 30.0091 76.0886 28.9243C78.9604 27.8967 81.0275 27.4377 82.7797 27.4377C84.4612 27.4377 86.0416 27.8478 88.2057 28.8507C89.7247 29.9768 90.578 30.8973 91.1362 32.0058C91.7231 33.1718 92.0297 34.6555 92.158 36.9566C92.1347 37.4156 92.1124 37.8268 92.0901 38.1988Z" fill="#000114"/>
<path d="M92.0901 38.1988C91.5484 37.7829 90.9414 37.5234 90.0413 37.5234C89.9558 37.5234 89.8656 37.5256 89.7729 37.5302L89.5601 37.5403L89.3591 37.6118C88.425 37.9446 87.8876 38.5424 87.5322 38.9381L87.5314 38.939C87.4088 39.0756 87.293 39.2046 87.2123 39.2645C87.191 39.2803 87.181 39.2875 87.1206 39.2893C87.0965 39.2857 87.011 39.2684 86.8406 39.1983H86.8395L86.8384 39.1976C86.3813 39.0107 85.7648 38.6348 85.1685 38.271C83.9522 37.5288 82.8031 36.8275 81.7183 36.8275C81.3675 36.8275 80.6763 36.8426 79.8015 36.862C78.7361 36.8858 77.4102 36.9149 76.1238 36.9296C75.576 36.9361 75.0724 36.9393 74.6267 36.9393C74.2357 36.9393 73.877 36.9368 73.561 36.9318C72.4044 36.9138 72.0072 36.8664 71.89 36.8469H71.8882C71.8537 36.8412 71.8192 36.8351 71.7861 36.829L71.7114 36.8153C71.1622 36.7136 70.8315 36.6007 70.6414 36.5166C70.9717 34.507 71.4253 33.175 72.124 32.1348C72.9047 30.9727 74.0933 30.0091 76.0886 28.9243C78.9604 27.8967 81.0275 27.4377 82.7797 27.4377C84.4612 27.4377 86.0416 27.8478 88.2057 28.8507C89.7247 29.9768 90.578 30.8973 91.1362 32.0058C91.7231 33.1718 92.0297 34.6555 92.158 36.9566C92.1347 37.4156 92.1124 37.8268 92.0901 38.1988Z" fill="#000114"/>
<path fill-rule="evenodd" clip-rule="evenodd" d="M90.889 39.9998L91.872 43L90.6963 42.3965C90.6963 42.3965 89.3873 41.3887 88.383 41.0756C88.4218 41.0504 88.4599 41.0235 88.498 40.9955C88.7515 40.8079 88.9461 40.5914 89.1344 40.382L89.1368 40.3794C89.3973 40.089 89.6256 39.8352 89.9879 39.6803C90.0062 39.6799 90.0242 39.6799 90.0414 39.6799C90.4142 39.6799 90.5867 39.7371 90.889 39.9998ZM82.2276 41.8281L78.4117 41.572C78.4117 41.572 78.9702 42.2926 79.7775 42.4706C79.8911 42.4893 80.0036 42.4979 80.1164 42.4979C80.7835 42.4979 81.4442 42.1915 82.2018 41.8401L82.2276 41.8281Z" fill="#000114"/>
<path d="M77.6209 40.4218L78.4117 41.572L82.2276 41.8281C82.4648 41.7181 82.7115 41.6041 82.9709 41.4938L77.6209 40.4218Z" fill="#000114"/>
<path d="M85.3088 40.852C84.8947 40.6299 84.4656 40.3682 84.0454 40.1116L84.0408 40.1088C83.2181 39.6071 82.1963 38.9841 81.7184 38.9841C81.3937 38.9841 80.7192 38.999 79.865 39.0179L79.8494 39.0182C78.9587 39.038 77.8872 39.0613 76.805 39.0775C77.1748 39.5225 77.6209 40.4218 77.6209 40.4218L82.9709 41.4938C83.6458 41.2071 84.4067 40.9465 85.3088 40.852Z" fill="#000114"/>
<path d="M88.0507 28.4189C86.0819 27.4957 84.4609 27 82.6123 27C80.7636 27 78.8712 27.4532 76.1895 28.4189C72.3298 30.4984 71.1732 32.356 70.5601 36.6647C70.7095 37.1921 71.3961 37.5644 72.6152 37.7902C72.6742 37.8013 72.7345 37.8121 72.796 37.8223C73.1125 37.8749 73.7122 37.9025 74.4585 37.9143C74.7579 37.919 75.081 37.9209 75.4188 37.9209C75.8463 37.9209 76.2973 37.9177 76.7543 37.9123C78.8253 37.8886 81.0177 37.8223 81.6761 37.8223C82.6668 37.8223 84.4501 39.303 85.7143 39.8193C85.981 39.9288 86.2249 39.9947 86.4333 39.9947H86.4491C86.8107 39.9887 87.0666 39.8809 87.2804 39.722C87.77 39.3588 88.0377 38.7277 88.8436 38.4407C88.9051 38.4379 88.9638 38.4363 89.0199 38.4363C89.6015 38.4363 89.894 38.599 90.3183 38.9957L90.795 40.4505L91.238 41.8025C91.8013 41.6296 91.977 40.2729 92.1577 36.6647C91.9262 32.3449 90.9884 30.5704 88.0507 28.4189ZM90.8276 37.7636C90.3497 37.3967 89.814 37.1677 89.0199 37.1677C88.9444 37.1677 88.8648 37.1696 88.783 37.1737L88.5952 37.1826L88.418 37.2457C87.5937 37.5394 87.1196 38.0668 86.8059 38.416C86.6974 38.5368 86.595 38.651 86.5236 38.7039C86.5049 38.7179 86.4961 38.7242 86.4428 38.7258C86.4215 38.7227 86.346 38.7074 86.1957 38.6456H86.1948L86.1938 38.645C85.7904 38.48 85.2465 38.1483 84.7204 37.8274C83.6471 37.1724 82.6332 36.5537 81.6761 36.5537C81.3665 36.5537 80.7567 36.567 79.9847 36.5841C79.0447 36.6051 77.8748 36.6308 76.7397 36.6438C76.2564 36.6495 75.8121 36.6523 75.4188 36.6523C75.0737 36.6523 74.7572 36.6501 74.4785 36.6457C73.4579 36.6298 73.1074 36.5879 73.004 36.5708H73.0025C72.972 36.5657 72.9416 36.5604 72.9124 36.555L72.8464 36.5429C72.3618 36.4532 72.07 36.3536 71.9023 36.2794C72.1937 34.5062 72.594 33.3309 73.2105 32.413C73.8993 31.3877 74.9481 30.5374 76.7086 29.5803C79.2426 28.6736 81.0665 28.2686 82.6126 28.2686H82.6129C84.0965 28.2686 85.4907 28.6304 87.4002 29.5153C88.7405 30.5089 89.4934 31.3211 89.9859 32.2992C90.5038 33.328 90.7743 34.6372 90.8876 36.6676C90.867 37.0725 90.8473 37.4354 90.8276 37.7636Z" fill="#ADFFDA"/>
<path d="M82.1254 40.966C82.3347 40.8689 82.5524 40.7683 82.7812 40.671L78.0607 39.7251L78.7584 40.74L82.1254 40.966Z" fill="#ADFFDA"/>
<path fill-rule="evenodd" clip-rule="evenodd" d="M90.6352 42L89.7678 39.3528C89.5011 39.121 89.3488 39.0705 89.02 39.0705C89.0047 39.0705 88.9889 39.0705 88.9727 39.0709C88.653 39.2075 88.4516 39.4314 88.2217 39.6877L88.2197 39.69C88.0535 39.8748 87.8818 40.0658 87.6581 40.2313C87.6245 40.256 87.5909 40.2798 87.5567 40.302C88.4428 40.5782 89.5978 41.4675 89.5978 41.4675L90.6352 42ZM84.8441 40.1047C84.0481 40.1881 83.3768 40.418 82.7812 40.671L78.0607 39.7251C78.0607 39.7251 77.6671 38.9316 77.3408 38.539C78.2957 38.5247 79.2411 38.5041 80.027 38.4867L80.0408 38.4864C80.7944 38.4697 81.3896 38.4565 81.6761 38.4565C82.0978 38.4565 82.9994 39.0063 83.7252 39.4489L83.7293 39.4514C84.1001 39.6779 84.4788 39.9088 84.8441 40.1047ZM78.7584 40.74L82.1254 40.966L82.1026 40.9765C81.4341 41.2866 80.8512 41.557 80.2626 41.557C80.163 41.557 80.0638 41.5493 79.9636 41.5329C79.2512 41.3759 78.7584 40.74 78.7584 40.74Z" fill="#ADFFDA"/>
<path d="M74.2371 32.0426C74.2371 32.0426 73.5355 32.7042 73.4055 33.2658C73.2751 33.8275 73.4708 34.008 73.7658 34.0762C73.8241 34.0898 73.8818 34.0977 73.938 34.0977C74.1663 34.0977 74.3687 33.9639 74.4733 33.5132C74.6037 32.9516 74.2374 32.0423 74.2374 32.0423L74.2371 32.0426Z" fill="#ADFFDA"/>
<path d="M85.3521 29.1191C85.3521 29.1191 85.5963 30.0684 86.0343 30.4435C86.2395 30.6192 86.4073 30.6881 86.5484 30.6881C86.7082 30.6881 86.8332 30.5993 86.9378 30.4772C87.1348 30.2472 87.1852 29.9859 86.7472 29.611C86.3093 29.2362 85.3521 29.1195 85.3521 29.1195V29.1191Z" fill="#ADFFDA"/>
<path d="M84.314 29.1483C84.314 29.1483 83.6223 29.8429 83.5237 30.4109C83.4247 30.9789 83.6579 31.153 83.956 31.205C84.002 31.2129 84.047 31.2177 84.0904 31.2177C84.328 31.2177 84.5199 31.0791 84.6033 30.5989C84.7022 30.0309 84.314 29.1483 84.314 29.1483Z" fill="#ADFFDA"/>
<path d="M81.9396 28.7855C81.7534 28.7855 81.5695 28.8055 81.4173 28.861C80.8756 29.0586 80.841 29.3475 80.9447 29.6317C81.0177 29.8312 81.1391 29.9755 81.3925 29.9755C81.5 29.9755 81.6313 29.9494 81.7931 29.8905C82.3348 29.6929 82.9059 28.9162 82.9059 28.9162C82.9059 28.9162 82.4163 28.7855 81.9396 28.7855Z" fill="#ADFFDA"/>
<path d="M77.0039 32.1786C77.0039 32.1786 76.4581 32.9928 76.4699 33.5693C76.4813 34.1326 76.7318 34.2661 77.0258 34.2661C77.0325 34.2661 77.0394 34.2661 77.0461 34.2661C77.3487 34.2601 77.5773 34.1237 77.5656 33.5475C77.5539 32.9712 77.0039 32.179 77.0039 32.179V32.1786Z" fill="#ADFFDA"/>
<path d="M173 17H172V18V50V51H173H221C230.389 51 238 43.3888 238 34C238 24.6112 230.389 17 221 17H173Z" fill="#0A0B1A" stroke="#FFFFFA" stroke-width="2"/>
<path d="M213.056 26.7081C210.686 25.5967 208.734 25 206.509 25C204.283 25 202.005 25.5456 198.777 26.7081C194.13 29.2115 192.738 31.4477 192 36.6347C192.18 37.2696 193.006 37.7179 194.474 37.9897C194.545 38.0031 194.618 38.016 194.692 38.0283C195.073 38.0916 195.795 38.1248 196.693 38.139C197.053 38.1447 197.442 38.147 197.849 38.147C198.364 38.147 198.907 38.1432 199.457 38.1367C201.95 38.108 204.589 38.0283 205.382 38.0283C206.575 38.0283 208.721 39.8108 210.243 40.4324C210.564 40.5641 210.858 40.6435 211.109 40.6435H211.128C211.563 40.6363 211.871 40.5065 212.128 40.3152C212.718 39.878 213.04 39.1183 214.01 38.7727C214.084 38.7693 214.155 38.7674 214.223 38.7674C214.923 38.7674 215.275 38.9633 215.786 39.4409L216.359 41.1922L216.893 42.8197C217.571 42.6117 217.782 40.9784 218 36.6347C217.721 31.4343 216.592 29.2982 213.056 26.7081ZM216.399 37.9576C215.823 37.5159 215.179 37.2402 214.223 37.2402C214.132 37.2402 214.036 37.2425 213.937 37.2475L213.711 37.2582L213.498 37.3342C212.506 37.6877 211.935 38.3226 211.557 38.743C211.427 38.8884 211.303 39.0259 211.217 39.0896C211.195 39.1064 211.184 39.1141 211.12 39.116C211.095 39.1122 211.004 39.0938 210.823 39.0194H210.822L210.82 39.0186C210.335 38.8201 209.68 38.4207 209.047 38.0344C207.755 37.246 206.534 36.5011 205.382 36.5011C205.009 36.5011 204.275 36.5171 203.346 36.5377C202.214 36.5629 200.806 36.5939 199.439 36.6095C198.857 36.6164 198.322 36.6198 197.849 36.6198C197.434 36.6198 197.053 36.6172 196.717 36.6118C195.488 36.5927 195.067 36.5423 194.942 36.5217H194.94C194.904 36.5156 194.867 36.5091 194.832 36.5026L194.752 36.4881C194.169 36.3801 193.818 36.2602 193.616 36.1708C193.967 34.0362 194.448 32.6213 195.191 31.5164C196.02 30.2821 197.282 29.2585 199.402 28.1063C202.452 27.0147 204.648 26.5272 206.509 26.5272H206.51C208.296 26.5272 209.974 26.9628 212.273 28.028C213.886 29.2241 214.793 30.2019 215.385 31.3794C216.009 32.6179 216.335 34.1939 216.471 36.6382C216.446 37.1257 216.422 37.5625 216.399 37.9576Z" fill="#ADFFDA"/>
<path d="M205.923 41.8128C206.175 41.6959 206.437 41.5748 206.712 41.4577L201.029 40.319L201.869 41.5407L205.923 41.8128Z" fill="#ADFFDA"/>
<path fill-rule="evenodd" clip-rule="evenodd" d="M216.167 43.0576L215.123 39.8708C214.802 39.5917 214.618 39.531 214.223 39.531C214.204 39.531 214.185 39.531 214.166 39.5313C213.781 39.6959 213.538 39.9654 213.262 40.2739L213.259 40.2767C213.059 40.4992 212.852 40.7291 212.583 40.9283C212.543 40.9581 212.502 40.9867 212.461 41.0135C213.528 41.346 214.918 42.4165 214.918 42.4165L216.167 43.0576ZM209.196 40.776C208.237 40.8763 207.429 41.1531 206.712 41.4577L201.029 40.319C201.029 40.319 200.556 39.3637 200.163 38.8911C201.312 38.8739 202.45 38.8491 203.396 38.8281L203.413 38.8277C204.32 38.8077 205.037 38.7918 205.382 38.7918C205.889 38.7918 206.975 39.4536 207.849 39.9865L207.854 39.9895C208.3 40.2621 208.756 40.54 209.196 40.776ZM201.869 41.5407L205.923 41.8128L205.895 41.8255C205.09 42.1987 204.389 42.5242 203.68 42.5242C203.56 42.5242 203.441 42.515 203.32 42.4952C202.463 42.3062 201.869 41.5407 201.869 41.5407Z" fill="#ADFFDA"/>
<path d="M196.426 31.0705C196.426 31.0705 195.582 31.8669 195.425 32.5431C195.268 33.2192 195.504 33.4365 195.859 33.5186C195.929 33.535 195.999 33.5445 196.066 33.5445C196.341 33.5445 196.585 33.3834 196.711 32.8409C196.868 32.1647 196.427 31.0701 196.427 31.0701L196.426 31.0705Z" fill="#ADFFDA"/>
<path d="M209.807 27.5511C209.807 27.5511 210.101 28.6938 210.628 29.1455C210.875 29.357 211.077 29.4399 211.247 29.4399C211.44 29.4399 211.59 29.333 211.716 29.186C211.953 28.9092 212.014 28.5946 211.487 28.1433C210.959 27.692 209.807 27.5515 209.807 27.5515V27.5511Z" fill="#ADFFDA"/>
<path d="M208.558 27.5862C208.558 27.5862 207.725 28.4224 207.606 29.1062C207.487 29.7899 207.768 29.9995 208.126 30.0622C208.182 30.0717 208.236 30.0774 208.288 30.0774C208.574 30.0774 208.805 29.9106 208.906 29.3326C209.025 28.6488 208.558 27.5862 208.558 27.5862Z" fill="#ADFFDA"/>
<path d="M205.699 27.1495C205.475 27.1495 205.254 27.1735 205.07 27.2403C204.418 27.4782 204.377 27.826 204.501 28.1681C204.589 28.4082 204.735 28.582 205.04 28.582C205.17 28.582 205.328 28.5506 205.523 28.4796C206.175 28.2418 206.862 27.3068 206.862 27.3068C206.862 27.3068 206.273 27.1495 205.699 27.1495Z" fill="#ADFFDA"/>
<path d="M199.757 31.2343C199.757 31.2343 199.1 32.2143 199.114 32.9084C199.128 33.5865 199.43 33.7472 199.784 33.7472C199.792 33.7472 199.8 33.7472 199.808 33.7472C200.172 33.74 200.448 33.5758 200.433 32.8821C200.419 32.1883 199.757 31.2346 199.757 31.2346V31.2343Z" fill="#ADFFDA"/>
<rect x="111.07" y="1" width="66" height="66" rx="27" fill="#ADFFDA" stroke="#FFFFFA" stroke-width="2"/>
<path d="M128.528 18.0128L159.073 18C159.916 18 160.602 18.6512 160.602 19.4535C160.602 20.2579 159.918 20.9091 159.075 20.9091L151.44 20.9134V22.3668C151.44 24.7758 149.391 26.7294 146.862 26.7315H145.336V29.7875C148.822 30.4599 151.447 33.3925 151.447 36.9102V42.7262C151.449 43.5285 150.768 44.1797 149.923 44.1818C149.081 44.1818 148.395 43.5307 148.395 42.7284V36.9123C148.39 34.5033 146.339 32.5497 143.807 32.5519C141.276 32.5519 139.227 34.5076 139.227 36.9166V42.7326C139.229 43.5349 138.548 44.1861 137.703 44.1882C136.858 44.1904 136.175 43.537 136.175 42.7348V36.9187C136.17 34.9119 137.024 33.0924 138.407 31.7772C139.446 30.7877 140.782 30.0811 142.277 29.7917V26.7379H140.749C139.484 26.7379 138.338 26.2506 137.509 25.4611C136.68 24.6716 136.166 23.582 136.166 22.3775C136.166 21.8667 136.257 21.3773 136.425 20.924L128.528 20.9282C127.686 20.9282 127 20.2771 127 19.4748C127 18.6725 127.684 18.0213 128.526 18.0192L128.528 18.0128ZM140.116 22.9733C140.668 23.499 141.432 23.8246 142.277 23.8246H145.331C147.018 23.8246 148.386 22.5201 148.384 20.9134L139.22 20.9176C139.22 21.7199 139.562 22.4477 140.116 22.9733Z" fill="#0A0B1A"/>
<path d="M142.281 36.9123L142.288 48.5466C142.288 49.3489 142.972 50.0001 143.817 50.0001C144.659 50.0001 145.343 49.3489 145.343 48.5445L145.336 36.9102C145.336 36.1079 144.652 35.4567 143.808 35.4567C142.963 35.4567 142.281 36.1079 142.281 36.9123Z" fill="#0A0B1A"/>
</svg>
