<svg width="45" height="184" viewBox="0 0 45 184" fill="none" xmlns="http://www.w3.org/2000/svg">
<rect x="2" y="2" width="36" height="174.667" rx="18" fill="#0A0B1A" fill-opacity="0.75" stroke="#ADFFDA" stroke-width="4"/>
<path d="M11.267 161.044C10.7757 161.044 10.3357 160.93 9.947 160.703C9.55833 160.468 9.25033 160.153 9.023 159.757C8.803 159.361 8.693 158.914 8.693 158.415C8.693 157.931 8.803 157.498 9.023 157.117C9.25033 156.736 9.55833 156.435 9.947 156.215C10.3357 155.995 10.7757 155.885 11.267 155.885C11.7583 155.885 12.1983 155.995 12.587 156.215C12.9757 156.435 13.28 156.736 13.5 157.117C13.72 157.498 13.83 157.931 13.83 158.415C13.8227 158.914 13.7053 159.361 13.478 159.757C13.258 160.153 12.9537 160.468 12.565 160.703C12.1837 160.93 11.751 161.044 11.267 161.044ZM11.267 160.274C11.5897 160.274 11.8793 160.193 12.136 160.032C12.3927 159.863 12.5943 159.64 12.741 159.361C12.895 159.082 12.972 158.767 12.972 158.415C12.972 158.078 12.8987 157.777 12.752 157.513C12.6053 157.242 12.4037 157.029 12.147 156.875C11.8903 156.721 11.597 156.644 11.267 156.644C10.937 156.644 10.6437 156.721 10.387 156.875C10.1303 157.029 9.925 157.242 9.771 157.513C9.62433 157.777 9.551 158.078 9.551 158.415C9.551 158.767 9.62433 159.082 9.771 159.361C9.91767 159.64 10.1193 159.863 10.376 160.032C10.64 160.193 10.937 160.274 11.267 160.274ZM11.267 156.567C10.8637 156.567 10.5007 156.475 10.178 156.292C9.85533 156.109 9.60233 155.859 9.419 155.544C9.23567 155.229 9.144 154.869 9.144 154.466C9.144 154.077 9.23567 153.725 9.419 153.41C9.60233 153.095 9.85533 152.845 10.178 152.662C10.5007 152.479 10.8637 152.387 11.267 152.387C11.6703 152.38 12.0333 152.468 12.356 152.651C12.6787 152.827 12.9317 153.076 13.115 153.399C13.2983 153.714 13.3863 154.07 13.379 154.466C13.379 154.869 13.2837 155.229 13.093 155.544C12.9097 155.859 12.6567 156.109 12.334 156.292C12.0187 156.475 11.663 156.567 11.267 156.567ZM11.267 155.83C11.509 155.83 11.7253 155.771 11.916 155.654C12.114 155.529 12.2717 155.364 12.389 155.159C12.5063 154.946 12.565 154.712 12.565 154.455C12.5723 154.206 12.5173 153.986 12.4 153.795C12.29 153.597 12.136 153.443 11.938 153.333C11.74 153.223 11.5163 153.168 11.267 153.168C10.893 153.168 10.5813 153.293 10.332 153.542C10.09 153.784 9.96533 154.088 9.958 154.455C9.95067 154.844 10.0717 155.17 10.321 155.434C10.5703 155.698 10.8857 155.83 11.267 155.83ZM17.6555 161C17.1128 161 16.6472 160.828 16.2585 160.483C15.8698 160.138 15.5728 159.647 15.3675 159.009C15.1695 158.364 15.0705 157.59 15.0705 156.688C15.0705 155.801 15.1695 155.034 15.3675 154.389C15.5728 153.744 15.8698 153.249 16.2585 152.904C16.6472 152.559 17.1128 152.387 17.6555 152.387C18.2128 152.387 18.6822 152.563 19.0635 152.915C19.4522 153.26 19.7455 153.755 19.9435 154.4C20.1488 155.045 20.2515 155.808 20.2515 156.688C20.2515 157.583 20.1488 158.353 19.9435 158.998C19.7455 159.636 19.4522 160.131 19.0635 160.483C18.6822 160.828 18.2128 161 17.6555 161ZM17.6555 160.142C18.0515 160.142 18.3778 159.995 18.6345 159.702C18.8912 159.401 19.0818 158.991 19.2065 158.47C19.3312 157.949 19.3935 157.355 19.3935 156.688C19.3935 156.028 19.3275 155.441 19.1955 154.928C19.0708 154.407 18.8802 153.997 18.6235 153.696C18.3668 153.395 18.0442 153.245 17.6555 153.245C17.2668 153.245 16.9442 153.395 16.6875 153.696C16.4382 153.989 16.2475 154.396 16.1155 154.917C15.9908 155.438 15.9285 156.028 15.9285 156.688C15.9285 157.363 15.9908 157.96 16.1155 158.481C16.2475 158.994 16.4382 159.401 16.6875 159.702C16.9442 159.995 17.2668 160.142 17.6555 160.142ZM22.5537 161C22.4364 161 22.3374 160.96 22.2567 160.879C22.176 160.798 22.1357 160.696 22.1357 160.571C22.1357 160.461 22.1687 160.366 22.2347 160.285L28.2737 152.574C28.325 152.523 28.3764 152.482 28.4277 152.453C28.4864 152.416 28.5487 152.398 28.6147 152.398C28.7394 152.398 28.842 152.442 28.9227 152.53C29.0034 152.611 29.0437 152.713 29.0437 152.838C29.0437 152.933 29.018 153.018 28.9667 153.091L22.8837 160.857C22.7884 160.952 22.6784 161 22.5537 161ZM23.3567 156.699C22.9607 156.699 22.5977 156.604 22.2677 156.413C21.945 156.215 21.6847 155.955 21.4867 155.632C21.296 155.302 21.2007 154.943 21.2007 154.554C21.2007 154.165 21.296 153.81 21.4867 153.487C21.6847 153.157 21.945 152.893 22.2677 152.695C22.5977 152.497 22.9607 152.398 23.3567 152.398C23.7454 152.398 24.101 152.497 24.4237 152.695C24.7537 152.893 25.014 153.157 25.2047 153.487C25.4027 153.81 25.5017 154.165 25.5017 154.554C25.5017 154.943 25.4027 155.302 25.2047 155.632C25.014 155.955 24.7537 156.215 24.4237 156.413C24.101 156.604 23.7454 156.699 23.3567 156.699ZM23.3567 155.863C23.5914 155.863 23.8077 155.804 24.0057 155.687C24.2037 155.562 24.3614 155.401 24.4787 155.203C24.6034 155.005 24.6657 154.789 24.6657 154.554C24.6657 154.312 24.6034 154.092 24.4787 153.894C24.3614 153.696 24.2 153.538 23.9947 153.421C23.7967 153.296 23.584 153.234 23.3567 153.234C23.122 153.234 22.902 153.296 22.6967 153.421C22.4987 153.538 22.3374 153.696 22.2127 153.894C22.0954 154.092 22.0367 154.312 22.0367 154.554C22.0367 154.789 22.0954 155.005 22.2127 155.203C22.3374 155.401 22.4987 155.562 22.6967 155.687C22.8947 155.804 23.1147 155.863 23.3567 155.863ZM27.8117 161C27.423 161 27.0637 160.905 26.7337 160.714C26.411 160.516 26.1507 160.256 25.9527 159.933C25.762 159.61 25.6667 159.251 25.6667 158.855C25.6667 158.466 25.762 158.111 25.9527 157.788C26.1507 157.458 26.411 157.198 26.7337 157.007C27.0564 156.809 27.4157 156.71 27.8117 156.71C28.2077 156.71 28.567 156.805 28.8897 156.996C29.2197 157.187 29.48 157.447 29.6707 157.777C29.8687 158.1 29.9677 158.459 29.9677 158.855C29.9677 159.251 29.8687 159.61 29.6707 159.933C29.48 160.256 29.2197 160.516 28.8897 160.714C28.567 160.905 28.2077 161 27.8117 161ZM27.8117 160.164C28.0537 160.164 28.2737 160.105 28.4717 159.988C28.6697 159.863 28.8274 159.702 28.9447 159.504C29.0694 159.306 29.1317 159.09 29.1317 158.855C29.1317 158.62 29.0694 158.404 28.9447 158.206C28.8274 158.008 28.666 157.85 28.4607 157.733C28.2627 157.608 28.0464 157.546 27.8117 157.546C27.577 157.546 27.357 157.605 27.1517 157.722C26.9537 157.839 26.796 158.001 26.6787 158.206C26.5614 158.404 26.5027 158.62 26.5027 158.855C26.5027 159.097 26.5614 159.317 26.6787 159.515C26.796 159.713 26.9537 159.871 27.1517 159.988C27.357 160.105 27.577 160.164 27.8117 160.164Z" fill="white"/>
<path d="M20 149C17.7833 149 15.8957 148.233 14.337 146.7C12.7783 145.167 11.9993 143.3 12 141.1C12 140.05 12.2043 139.046 12.613 138.088C13.0217 137.13 13.6007 136.284 14.35 135.55L20 130L25.65 135.55C26.4 136.283 26.9793 137.129 27.388 138.088C27.7967 139.047 28.0007 140.051 28 141.1C28 143.3 27.221 145.167 25.663 146.7C24.105 148.233 22.2173 149 20 149ZM20 147C21.6667 147 23.0833 146.429 24.25 145.287C25.4167 144.145 26 142.749 26 141.1C26 140.317 25.85 139.571 25.55 138.863C25.25 138.155 24.8167 137.534 24.25 137L20 132.8L15.75 137C15.1833 137.533 14.75 138.154 14.45 138.863C14.15 139.572 14 140.317 14 141.1C14 142.75 14.5833 144.146 15.75 145.288C16.9167 146.43 18.3333 147.001 20 147Z" fill="#00FF00"/>
<path d="M7.21 103C7.09267 103 6.99 102.96 6.902 102.879C6.82133 102.798 6.781 102.696 6.781 102.571C6.781 102.461 6.82133 102.362 6.902 102.274L10.235 98.336C10.4183 98.138 10.565 97.918 10.675 97.676C10.785 97.4267 10.84 97.1957 10.84 96.983C10.84 96.6383 10.7703 96.334 10.631 96.07C10.499 95.806 10.3083 95.6007 10.059 95.454C9.817 95.3 9.53833 95.223 9.223 95.223C8.915 95.223 8.63267 95.3037 8.376 95.465C8.12667 95.619 7.92867 95.828 7.782 96.092C7.64267 96.356 7.573 96.653 7.573 96.983C7.573 97.1003 7.53267 97.1993 7.452 97.28C7.37133 97.3607 7.26867 97.401 7.144 97.401C7.02667 97.401 6.924 97.3607 6.836 97.28C6.75533 97.1993 6.715 97.1003 6.715 96.983C6.715 96.4917 6.825 96.0517 7.045 95.663C7.265 95.2743 7.562 94.9663 7.936 94.739C8.31733 94.5117 8.74633 94.398 9.223 94.398C9.69967 94.398 10.1213 94.508 10.488 94.728C10.862 94.948 11.1517 95.2523 11.357 95.641C11.5697 96.0297 11.676 96.477 11.676 96.983C11.676 97.225 11.6357 97.456 11.555 97.676C11.4817 97.896 11.379 98.1087 11.247 98.314C11.115 98.512 10.972 98.699 10.818 98.875L8.002 102.142H11.445C11.5623 102.142 11.6613 102.186 11.742 102.274C11.83 102.362 11.874 102.461 11.874 102.571C11.874 102.696 11.83 102.798 11.742 102.879C11.6613 102.96 11.5623 103 11.445 103H7.21ZM15.6916 103.055C15.1783 103.055 14.7163 102.945 14.3056 102.725C13.9023 102.498 13.5833 102.19 13.3486 101.801C13.1139 101.412 12.9966 100.972 12.9966 100.481C12.9966 100.356 13.0333 100.25 13.1066 100.162C13.1799 100.074 13.2789 100.03 13.4036 100.03C13.5283 100.03 13.6273 100.074 13.7006 100.162C13.7739 100.25 13.8106 100.356 13.8106 100.481C13.8106 100.818 13.8913 101.123 14.0526 101.394C14.2139 101.658 14.4339 101.871 14.7126 102.032C14.9986 102.186 15.3139 102.263 15.6586 102.263C16.2306 102.263 16.6779 102.105 17.0006 101.79C17.3233 101.467 17.4846 101.053 17.4846 100.547C17.4846 100.188 17.4076 99.876 17.2536 99.612C17.0996 99.3407 16.8906 99.1317 16.6266 98.985C16.3626 98.831 16.0656 98.754 15.7356 98.754C15.6183 98.754 15.5193 98.7137 15.4386 98.633C15.3579 98.5523 15.3176 98.4497 15.3176 98.325C15.3176 98.2077 15.3579 98.1087 15.4386 98.028C15.5193 97.9473 15.6183 97.907 15.7356 97.907C15.9923 97.907 16.2269 97.8447 16.4396 97.72C16.6596 97.588 16.8356 97.4157 16.9676 97.203C17.0996 96.9903 17.1656 96.7557 17.1656 96.499C17.1656 96.1103 17.0336 95.7877 16.7696 95.531C16.5056 95.267 16.1536 95.135 15.7136 95.135C15.4056 95.135 15.1306 95.1973 14.8886 95.322C14.6466 95.4393 14.4559 95.6007 14.3166 95.806C14.1846 96.004 14.1186 96.2313 14.1186 96.488C14.1186 96.6127 14.0783 96.719 13.9976 96.807C13.9243 96.8877 13.8289 96.928 13.7116 96.928C13.5869 96.928 13.4879 96.8877 13.4146 96.807C13.3413 96.719 13.3046 96.6163 13.3046 96.499C13.3046 96.0957 13.4073 95.7327 13.6126 95.41C13.8253 95.08 14.1113 94.8233 14.4706 94.64C14.8299 94.4493 15.2443 94.354 15.7136 94.354C16.1389 94.354 16.5203 94.4493 16.8576 94.64C17.2023 94.8233 17.4736 95.08 17.6716 95.41C17.8769 95.7327 17.9796 96.0957 17.9796 96.499C17.9796 96.7483 17.9173 96.9903 17.7926 97.225C17.6753 97.4597 17.5176 97.6723 17.3196 97.863C17.1216 98.0463 16.9053 98.1893 16.6706 98.292C17.0446 98.402 17.3563 98.5707 17.6056 98.798C17.8549 99.0253 18.0383 99.293 18.1556 99.601C18.2729 99.9017 18.3316 100.217 18.3316 100.547C18.3316 101.031 18.2143 101.464 17.9796 101.845C17.7523 102.219 17.4369 102.516 17.0336 102.736C16.6303 102.949 16.1829 103.055 15.6916 103.055ZM21.4222 98.622C21.0115 98.622 20.6412 98.5267 20.3112 98.336C19.9885 98.1453 19.7318 97.8887 19.5412 97.566C19.3578 97.2433 19.2662 96.8767 19.2662 96.466C19.2662 96.0553 19.3578 95.6887 19.5412 95.366C19.7318 95.036 19.9885 94.7793 20.3112 94.596C20.6412 94.4053 21.0115 94.31 21.4222 94.31C21.8328 94.31 22.1995 94.4053 22.5222 94.596C22.8522 94.7793 23.1088 95.036 23.2922 95.366C23.4828 95.6887 23.5782 96.0553 23.5782 96.466C23.5782 96.8767 23.4828 97.2433 23.2922 97.566C23.1088 97.8887 22.8522 98.1453 22.5222 98.336C22.1995 98.5267 21.8328 98.622 21.4222 98.622ZM21.4222 97.797C21.8035 97.797 22.1225 97.6723 22.3792 97.423C22.6358 97.1663 22.7642 96.8473 22.7642 96.466C22.7642 96.0773 22.6358 95.7583 22.3792 95.509C22.1225 95.2523 21.8035 95.124 21.4222 95.124C21.0408 95.124 20.7218 95.2523 20.4652 95.509C20.2085 95.7583 20.0802 96.0773 20.0802 96.466C20.0802 96.8473 20.2085 97.1663 20.4652 97.423C20.7218 97.6723 21.0408 97.797 21.4222 97.797ZM28.9756 103.11C28.3816 103.11 27.8243 102.996 27.3036 102.769C26.7903 102.542 26.3356 102.226 25.9396 101.823C25.551 101.412 25.2466 100.943 25.0266 100.415C24.8066 99.8797 24.6966 99.3077 24.6966 98.699C24.6966 98.0977 24.803 97.533 25.0156 97.005C25.2356 96.4697 25.54 96.0003 25.9286 95.597C26.3246 95.1937 26.7793 94.8783 27.2926 94.651C27.8133 94.4163 28.3743 94.299 28.9756 94.299C29.5036 94.299 29.984 94.376 30.4166 94.53C30.8493 94.684 31.2673 94.9297 31.6706 95.267C31.7366 95.3183 31.7733 95.3807 31.7806 95.454C31.7953 95.52 31.788 95.586 31.7586 95.652C31.7293 95.7107 31.6853 95.7547 31.6266 95.784C31.612 95.8427 31.5753 95.8867 31.5166 95.916C31.458 95.9453 31.3883 95.9563 31.3076 95.949C31.2343 95.9417 31.161 95.9087 31.0876 95.85C30.8016 95.6007 30.49 95.4173 30.1526 95.3C29.8153 95.1753 29.423 95.113 28.9756 95.113C28.499 95.113 28.0516 95.2083 27.6336 95.399C27.223 95.5897 26.86 95.85 26.5446 96.18C26.2293 96.51 25.98 96.8913 25.7966 97.324C25.6206 97.7567 25.5326 98.215 25.5326 98.699C25.5326 99.1977 25.6206 99.6633 25.7966 100.096C25.98 100.529 26.2293 100.91 26.5446 101.24C26.86 101.57 27.223 101.83 27.6336 102.021C28.0516 102.204 28.499 102.296 28.9756 102.296C29.379 102.296 29.7603 102.23 30.1196 102.098C30.479 101.966 30.82 101.775 31.1426 101.526C31.2306 101.453 31.3223 101.423 31.4176 101.438C31.5203 101.453 31.6083 101.497 31.6816 101.57C31.755 101.643 31.7916 101.739 31.7916 101.856C31.7916 101.915 31.7806 101.97 31.7586 102.021C31.744 102.065 31.7146 102.113 31.6706 102.164C31.2966 102.509 30.8786 102.754 30.4166 102.901C29.9546 103.04 29.4743 103.11 28.9756 103.11Z" fill="white"/>
<path fill-rule="evenodd" clip-rule="evenodd" d="M20 91C18.6167 91 17.4373 90.5123 16.462 89.537C15.4867 88.5617 14.9993 87.3827 15 86C15 85.2 15.175 84.454 15.525 83.762C15.875 83.07 16.3667 82.4827 17 82V76C17 75.1667 17.2917 74.4583 17.875 73.875C18.4583 73.2917 19.1667 73 20 73C20.8333 73 21.5417 73.2917 22.125 73.875C22.7083 74.4583 23 75.1667 23 76V82C23.6333 82.4833 24.125 83.071 24.475 83.763C24.825 84.455 25 85.2007 25 86C25 87.3833 24.5123 88.5627 23.537 89.538C22.5617 90.5133 21.3827 91.0007 20 91ZM17 86H23C23 85.5167 22.8957 85.0667 22.687 84.65C22.4783 84.2333 22.1827 83.8833 21.8 83.6L21 83V76C21 75.7167 20.904 75.479 20.712 75.287C20.52 75.095 20.2827 74.9993 20 75C19.7167 75 19.479 75.096 19.287 75.288C19.095 75.48 18.9993 75.7173 19 76V83L18.2 83.6C17.8167 83.8833 17.5207 84.2333 17.312 84.65C17.1033 85.0667 16.9993 85.5167 17 86Z" fill="#00FF00"/>
<mask id="path-6-outside-1_42_834" maskUnits="userSpaceOnUse" x="6" y="10" width="28" height="28" fill="black">
<rect fill="white" x="6" y="10" width="28" height="28"/>
<path d="M19.9994 12C20.4134 12 20.7494 12.336 20.7494 12.75V14.2501C20.7494 14.449 20.6704 14.6397 20.5297 14.7804C20.3891 14.9211 20.1983 15.0001 19.9994 15.0001C19.8005 15.0001 19.6097 14.9211 19.4691 14.7804C19.3284 14.6397 19.2494 14.449 19.2494 14.2501V12.75C19.2494 12.336 19.5854 12 19.9994 12ZM20.0282 30.0124C23.3336 30.0124 26.0132 27.3334 26.0132 24.0279C26.0132 20.7218 23.3336 18.0422 20.0282 18.0422C16.7222 18.0422 14.0426 20.7218 14.0426 24.0279C14.0426 27.3334 16.7222 30.0124 20.0282 30.0124ZM20.0282 28.5124C18.8387 28.5124 17.6979 28.0399 16.8568 27.1988C16.0157 26.3576 15.5432 25.2168 15.5432 24.0273C15.5432 22.8378 16.0157 21.697 16.8568 20.8558C17.6979 20.0147 18.8387 19.5422 20.0282 19.5422C21.2177 19.5422 22.3585 20.0147 23.1996 20.8558C24.0407 21.697 24.5132 22.8378 24.5132 24.0273C24.5132 25.2168 24.0407 26.3576 23.1996 27.1988C22.3585 28.0399 21.2177 28.5124 20.0282 28.5124ZM31.25 24.7503C31.4489 24.7503 31.6397 24.6713 31.7803 24.5306C31.921 24.39 32 24.1992 32 24.0003C32 23.8014 31.921 23.6106 31.7803 23.47C31.6397 23.3293 31.4489 23.2503 31.25 23.2503H29.75C29.5511 23.2503 29.3603 23.3293 29.2197 23.47C29.079 23.6106 29 23.8014 29 24.0003C29 24.1992 29.079 24.39 29.2197 24.5306C29.3603 24.6713 29.5511 24.7503 29.75 24.7503H31.25ZM19.9994 32.9999C20.4134 32.9999 20.7494 33.3359 20.7494 33.7499V35.25C20.7494 35.4489 20.6704 35.6397 20.5297 35.7803C20.3891 35.921 20.1983 36 19.9994 36C19.8005 36 19.6097 35.921 19.4691 35.7803C19.3284 35.6397 19.2494 35.4489 19.2494 35.25V33.7499C19.2494 33.3359 19.5854 32.9999 19.9994 32.9999ZM10.25 24.7497C10.4489 24.7497 10.6397 24.6707 10.7803 24.53C10.921 24.3894 11 24.1986 11 23.9997C11 23.8008 10.921 23.61 10.7803 23.4694C10.6397 23.3287 10.4489 23.2497 10.25 23.2497H8.75C8.55109 23.2497 8.36032 23.3287 8.21967 23.4694C8.07902 23.61 8 23.8008 8 23.9997C8 24.1986 8.07902 24.3894 8.21967 24.53C8.36032 24.6707 8.55109 24.7497 8.75 24.7497H10.25ZM11.2196 15.2185C11.2892 15.1488 11.3719 15.0936 11.4629 15.0558C11.5539 15.0181 11.6515 14.9987 11.75 14.9987C11.8485 14.9987 11.9461 15.0181 12.0371 15.0558C12.1281 15.0936 12.2108 15.1488 12.2804 15.2185L13.7804 16.7185C13.8501 16.7882 13.9053 16.8709 13.943 16.9619C13.9807 17.0529 14.0001 17.1504 14.0001 17.2489C14.0001 17.3474 13.9807 17.445 13.943 17.536C13.9053 17.627 13.8501 17.7097 13.7804 17.7793C13.7107 17.849 13.6281 17.9043 13.5371 17.9419C13.446 17.9796 13.3485 17.999 13.25 17.999C13.1515 17.999 13.054 17.9796 12.9629 17.9419C12.8719 17.9043 12.7893 17.849 12.7196 17.7793L11.2196 16.2793C11.1499 16.2097 11.0947 16.127 11.057 16.036C11.0193 15.9449 10.9999 15.8474 10.9999 15.7489C10.9999 15.6504 11.0193 15.5528 11.057 15.4618C11.0947 15.3708 11.1499 15.2881 11.2196 15.2185ZM12.2804 32.7803C12.2107 32.85 12.1281 32.9052 12.0371 32.9429C11.946 32.9806 11.8485 33 11.75 33C11.6515 33 11.554 32.9806 11.4629 32.9429C11.3719 32.9052 11.2893 32.85 11.2196 32.7803C11.1499 32.7107 11.0947 32.628 11.057 32.537C11.0193 32.446 10.9999 32.3484 10.9999 32.2499C10.9999 32.1514 11.0193 32.0539 11.057 31.9628C11.0947 31.8718 11.1499 31.7891 11.2196 31.7195L12.7196 30.2195C12.7893 30.1498 12.8719 30.0945 12.9629 30.0569C13.054 30.0192 13.1515 29.9998 13.25 29.9998C13.3485 29.9998 13.446 30.0192 13.5371 30.0569C13.6281 30.0945 13.7107 30.1498 13.7804 30.2195C13.8501 30.2891 13.9053 30.3718 13.943 30.4628C13.9807 30.5538 14.0001 30.6514 14.0001 30.7499C14.0001 30.8484 13.9807 30.9459 13.943 31.0369C13.9053 31.1279 13.8501 31.2106 13.7804 31.2803L12.2804 32.7803ZM28.7804 15.2185C28.6398 15.078 28.4491 14.999 28.2503 14.999C28.0515 14.999 27.8608 15.078 27.7202 15.2185L26.2202 16.7185C26.0795 16.8592 26.0005 17.05 26.0005 17.2489C26.0005 17.4479 26.0795 17.6387 26.2202 17.7793C26.3609 17.92 26.5517 17.999 26.7506 17.999C26.9495 17.999 27.1403 17.92 27.281 17.7793L28.781 16.2793C28.8507 16.2097 28.9059 16.127 28.9436 16.036C28.9813 15.9449 29.0007 15.8474 29.0007 15.7489C29.0007 15.6504 28.9813 15.5528 28.9436 15.4618C28.9059 15.3708 28.8501 15.2881 28.7804 15.2185ZM27.7202 32.7803C27.8609 32.921 28.0517 33 28.2506 33C28.4495 33 28.6403 32.921 28.781 32.7803C28.9217 32.6396 29.0007 32.4488 29.0007 32.2499C29.0007 32.051 28.9217 31.8602 28.781 31.7195L27.281 30.2195C27.1403 30.0788 26.9495 29.9998 26.7506 29.9998C26.5517 29.9998 26.3609 30.0788 26.2202 30.2195C26.0795 30.3601 26.0005 30.5509 26.0005 30.7499C26.0005 30.9488 26.0795 31.1396 26.2202 31.2803L27.7202 32.7803Z"/>
</mask>
<path d="M19.9994 12C20.4134 12 20.7494 12.336 20.7494 12.75V14.2501C20.7494 14.449 20.6704 14.6397 20.5297 14.7804C20.3891 14.9211 20.1983 15.0001 19.9994 15.0001C19.8005 15.0001 19.6097 14.9211 19.4691 14.7804C19.3284 14.6397 19.2494 14.449 19.2494 14.2501V12.75C19.2494 12.336 19.5854 12 19.9994 12ZM20.0282 30.0124C23.3336 30.0124 26.0132 27.3334 26.0132 24.0279C26.0132 20.7218 23.3336 18.0422 20.0282 18.0422C16.7222 18.0422 14.0426 20.7218 14.0426 24.0279C14.0426 27.3334 16.7222 30.0124 20.0282 30.0124ZM20.0282 28.5124C18.8387 28.5124 17.6979 28.0399 16.8568 27.1988C16.0157 26.3576 15.5432 25.2168 15.5432 24.0273C15.5432 22.8378 16.0157 21.697 16.8568 20.8558C17.6979 20.0147 18.8387 19.5422 20.0282 19.5422C21.2177 19.5422 22.3585 20.0147 23.1996 20.8558C24.0407 21.697 24.5132 22.8378 24.5132 24.0273C24.5132 25.2168 24.0407 26.3576 23.1996 27.1988C22.3585 28.0399 21.2177 28.5124 20.0282 28.5124ZM31.25 24.7503C31.4489 24.7503 31.6397 24.6713 31.7803 24.5306C31.921 24.39 32 24.1992 32 24.0003C32 23.8014 31.921 23.6106 31.7803 23.47C31.6397 23.3293 31.4489 23.2503 31.25 23.2503H29.75C29.5511 23.2503 29.3603 23.3293 29.2197 23.47C29.079 23.6106 29 23.8014 29 24.0003C29 24.1992 29.079 24.39 29.2197 24.5306C29.3603 24.6713 29.5511 24.7503 29.75 24.7503H31.25ZM19.9994 32.9999C20.4134 32.9999 20.7494 33.3359 20.7494 33.7499V35.25C20.7494 35.4489 20.6704 35.6397 20.5297 35.7803C20.3891 35.921 20.1983 36 19.9994 36C19.8005 36 19.6097 35.921 19.4691 35.7803C19.3284 35.6397 19.2494 35.4489 19.2494 35.25V33.7499C19.2494 33.3359 19.5854 32.9999 19.9994 32.9999ZM10.25 24.7497C10.4489 24.7497 10.6397 24.6707 10.7803 24.53C10.921 24.3894 11 24.1986 11 23.9997C11 23.8008 10.921 23.61 10.7803 23.4694C10.6397 23.3287 10.4489 23.2497 10.25 23.2497H8.75C8.55109 23.2497 8.36032 23.3287 8.21967 23.4694C8.07902 23.61 8 23.8008 8 23.9997C8 24.1986 8.07902 24.3894 8.21967 24.53C8.36032 24.6707 8.55109 24.7497 8.75 24.7497H10.25ZM11.2196 15.2185C11.2892 15.1488 11.3719 15.0936 11.4629 15.0558C11.5539 15.0181 11.6515 14.9987 11.75 14.9987C11.8485 14.9987 11.9461 15.0181 12.0371 15.0558C12.1281 15.0936 12.2108 15.1488 12.2804 15.2185L13.7804 16.7185C13.8501 16.7882 13.9053 16.8709 13.943 16.9619C13.9807 17.0529 14.0001 17.1504 14.0001 17.2489C14.0001 17.3474 13.9807 17.445 13.943 17.536C13.9053 17.627 13.8501 17.7097 13.7804 17.7793C13.7107 17.849 13.6281 17.9043 13.5371 17.9419C13.446 17.9796 13.3485 17.999 13.25 17.999C13.1515 17.999 13.054 17.9796 12.9629 17.9419C12.8719 17.9043 12.7893 17.849 12.7196 17.7793L11.2196 16.2793C11.1499 16.2097 11.0947 16.127 11.057 16.036C11.0193 15.9449 10.9999 15.8474 10.9999 15.7489C10.9999 15.6504 11.0193 15.5528 11.057 15.4618C11.0947 15.3708 11.1499 15.2881 11.2196 15.2185ZM12.2804 32.7803C12.2107 32.85 12.1281 32.9052 12.0371 32.9429C11.946 32.9806 11.8485 33 11.75 33C11.6515 33 11.554 32.9806 11.4629 32.9429C11.3719 32.9052 11.2893 32.85 11.2196 32.7803C11.1499 32.7107 11.0947 32.628 11.057 32.537C11.0193 32.446 10.9999 32.3484 10.9999 32.2499C10.9999 32.1514 11.0193 32.0539 11.057 31.9628C11.0947 31.8718 11.1499 31.7891 11.2196 31.7195L12.7196 30.2195C12.7893 30.1498 12.8719 30.0945 12.9629 30.0569C13.054 30.0192 13.1515 29.9998 13.25 29.9998C13.3485 29.9998 13.446 30.0192 13.5371 30.0569C13.6281 30.0945 13.7107 30.1498 13.7804 30.2195C13.8501 30.2891 13.9053 30.3718 13.943 30.4628C13.9807 30.5538 14.0001 30.6514 14.0001 30.7499C14.0001 30.8484 13.9807 30.9459 13.943 31.0369C13.9053 31.1279 13.8501 31.2106 13.7804 31.2803L12.2804 32.7803ZM28.7804 15.2185C28.6398 15.078 28.4491 14.999 28.2503 14.999C28.0515 14.999 27.8608 15.078 27.7202 15.2185L26.2202 16.7185C26.0795 16.8592 26.0005 17.05 26.0005 17.2489C26.0005 17.4479 26.0795 17.6387 26.2202 17.7793C26.3609 17.92 26.5517 17.999 26.7506 17.999C26.9495 17.999 27.1403 17.92 27.281 17.7793L28.781 16.2793C28.8507 16.2097 28.9059 16.127 28.9436 16.036C28.9813 15.9449 29.0007 15.8474 29.0007 15.7489C29.0007 15.6504 28.9813 15.5528 28.9436 15.4618C28.9059 15.3708 28.8501 15.2881 28.7804 15.2185ZM27.7202 32.7803C27.8609 32.921 28.0517 33 28.2506 33C28.4495 33 28.6403 32.921 28.781 32.7803C28.9217 32.6396 29.0007 32.4488 29.0007 32.2499C29.0007 32.051 28.9217 31.8602 28.781 31.7195L27.281 30.2195C27.1403 30.0788 26.9495 29.9998 26.7506 29.9998C26.5517 29.9998 26.3609 30.0788 26.2202 30.2195C26.0795 30.3601 26.0005 30.5509 26.0005 30.7499C26.0005 30.9488 26.0795 31.1396 26.2202 31.2803L27.7202 32.7803Z" fill="#00FF00"/>
<path d="M19.9994 12C20.4134 12 20.7494 12.336 20.7494 12.75V14.2501C20.7494 14.449 20.6704 14.6397 20.5297 14.7804C20.3891 14.9211 20.1983 15.0001 19.9994 15.0001C19.8005 15.0001 19.6097 14.9211 19.4691 14.7804C19.3284 14.6397 19.2494 14.449 19.2494 14.2501V12.75C19.2494 12.336 19.5854 12 19.9994 12ZM20.0282 30.0124C23.3336 30.0124 26.0132 27.3334 26.0132 24.0279C26.0132 20.7218 23.3336 18.0422 20.0282 18.0422C16.7222 18.0422 14.0426 20.7218 14.0426 24.0279C14.0426 27.3334 16.7222 30.0124 20.0282 30.0124ZM20.0282 28.5124C18.8387 28.5124 17.6979 28.0399 16.8568 27.1988C16.0157 26.3576 15.5432 25.2168 15.5432 24.0273C15.5432 22.8378 16.0157 21.697 16.8568 20.8558C17.6979 20.0147 18.8387 19.5422 20.0282 19.5422C21.2177 19.5422 22.3585 20.0147 23.1996 20.8558C24.0407 21.697 24.5132 22.8378 24.5132 24.0273C24.5132 25.2168 24.0407 26.3576 23.1996 27.1988C22.3585 28.0399 21.2177 28.5124 20.0282 28.5124ZM31.25 24.7503C31.4489 24.7503 31.6397 24.6713 31.7803 24.5306C31.921 24.39 32 24.1992 32 24.0003C32 23.8014 31.921 23.6106 31.7803 23.47C31.6397 23.3293 31.4489 23.2503 31.25 23.2503H29.75C29.5511 23.2503 29.3603 23.3293 29.2197 23.47C29.079 23.6106 29 23.8014 29 24.0003C29 24.1992 29.079 24.39 29.2197 24.5306C29.3603 24.6713 29.5511 24.7503 29.75 24.7503H31.25ZM19.9994 32.9999C20.4134 32.9999 20.7494 33.3359 20.7494 33.7499V35.25C20.7494 35.4489 20.6704 35.6397 20.5297 35.7803C20.3891 35.921 20.1983 36 19.9994 36C19.8005 36 19.6097 35.921 19.4691 35.7803C19.3284 35.6397 19.2494 35.4489 19.2494 35.25V33.7499C19.2494 33.3359 19.5854 32.9999 19.9994 32.9999ZM10.25 24.7497C10.4489 24.7497 10.6397 24.6707 10.7803 24.53C10.921 24.3894 11 24.1986 11 23.9997C11 23.8008 10.921 23.61 10.7803 23.4694C10.6397 23.3287 10.4489 23.2497 10.25 23.2497H8.75C8.55109 23.2497 8.36032 23.3287 8.21967 23.4694C8.07902 23.61 8 23.8008 8 23.9997C8 24.1986 8.07902 24.3894 8.21967 24.53C8.36032 24.6707 8.55109 24.7497 8.75 24.7497H10.25ZM11.2196 15.2185C11.2892 15.1488 11.3719 15.0936 11.4629 15.0558C11.5539 15.0181 11.6515 14.9987 11.75 14.9987C11.8485 14.9987 11.9461 15.0181 12.0371 15.0558C12.1281 15.0936 12.2108 15.1488 12.2804 15.2185L13.7804 16.7185C13.8501 16.7882 13.9053 16.8709 13.943 16.9619C13.9807 17.0529 14.0001 17.1504 14.0001 17.2489C14.0001 17.3474 13.9807 17.445 13.943 17.536C13.9053 17.627 13.8501 17.7097 13.7804 17.7793C13.7107 17.849 13.6281 17.9043 13.5371 17.9419C13.446 17.9796 13.3485 17.999 13.25 17.999C13.1515 17.999 13.054 17.9796 12.9629 17.9419C12.8719 17.9043 12.7893 17.849 12.7196 17.7793L11.2196 16.2793C11.1499 16.2097 11.0947 16.127 11.057 16.036C11.0193 15.9449 10.9999 15.8474 10.9999 15.7489C10.9999 15.6504 11.0193 15.5528 11.057 15.4618C11.0947 15.3708 11.1499 15.2881 11.2196 15.2185ZM12.2804 32.7803C12.2107 32.85 12.1281 32.9052 12.0371 32.9429C11.946 32.9806 11.8485 33 11.75 33C11.6515 33 11.554 32.9806 11.4629 32.9429C11.3719 32.9052 11.2893 32.85 11.2196 32.7803C11.1499 32.7107 11.0947 32.628 11.057 32.537C11.0193 32.446 10.9999 32.3484 10.9999 32.2499C10.9999 32.1514 11.0193 32.0539 11.057 31.9628C11.0947 31.8718 11.1499 31.7891 11.2196 31.7195L12.7196 30.2195C12.7893 30.1498 12.8719 30.0945 12.9629 30.0569C13.054 30.0192 13.1515 29.9998 13.25 29.9998C13.3485 29.9998 13.446 30.0192 13.5371 30.0569C13.6281 30.0945 13.7107 30.1498 13.7804 30.2195C13.8501 30.2891 13.9053 30.3718 13.943 30.4628C13.9807 30.5538 14.0001 30.6514 14.0001 30.7499C14.0001 30.8484 13.9807 30.9459 13.943 31.0369C13.9053 31.1279 13.8501 31.2106 13.7804 31.2803L12.2804 32.7803ZM28.7804 15.2185C28.6398 15.078 28.4491 14.999 28.2503 14.999C28.0515 14.999 27.8608 15.078 27.7202 15.2185L26.2202 16.7185C26.0795 16.8592 26.0005 17.05 26.0005 17.2489C26.0005 17.4479 26.0795 17.6387 26.2202 17.7793C26.3609 17.92 26.5517 17.999 26.7506 17.999C26.9495 17.999 27.1403 17.92 27.281 17.7793L28.781 16.2793C28.8507 16.2097 28.9059 16.127 28.9436 16.036C28.9813 15.9449 29.0007 15.8474 29.0007 15.7489C29.0007 15.6504 28.9813 15.5528 28.9436 15.4618C28.9059 15.3708 28.8501 15.2881 28.7804 15.2185ZM27.7202 32.7803C27.8609 32.921 28.0517 33 28.2506 33C28.4495 33 28.6403 32.921 28.781 32.7803C28.9217 32.6396 29.0007 32.4488 29.0007 32.2499C29.0007 32.051 28.9217 31.8602 28.781 31.7195L27.281 30.2195C27.1403 30.0788 26.9495 29.9998 26.7506 29.9998C26.5517 29.9998 26.3609 30.0788 26.2202 30.2195C26.0795 30.3601 26.0005 30.5509 26.0005 30.7499C26.0005 30.9488 26.0795 31.1396 26.2202 31.2803L27.7202 32.7803Z" stroke="#000114" stroke-width="3" mask="url(#path-6-outside-1_42_834)"/>
</svg>
