<svg width="64" height="64" viewBox="0 0 64 64" fill="none" xmlns="http://www.w3.org/2000/svg">
<path d="M62 32C62 36.06 61.19 39.93 59.72 43.46C59.22 44.69 58.64 45.88 57.96 47C56.66 44.7 55.04 42.62 53.17 40.76C53.06 40.65 52.96 40.55 52.84 40.45C53.91 37.84 54.49 34.99 54.49 32C54.49 29.01 53.88 26.03 52.77 23.38C51.65 20.63 49.97 18.17 47.89 16.1L53.2 10.79C55.96 13.55 58.18 16.83 59.7 20.49C61.18 24.03 61.99 27.92 61.99 32H62Z" fill="#0A0B1A" stroke="#ADFFDA" stroke-width="3" stroke-miterlimit="10" stroke-linejoin="round"/>
<path d="M53.21 10.79L47.9 16.1C45.83 14.01 43.34 12.33 40.58 11.2C37.94 10.1 35.03 9.5 32 9.5C28.97 9.5 26.02 10.11 23.36 11.22L20.48 4.29C24.02 2.81 27.92 2 32 2C36.08 2 39.92 2.81 43.45 4.26C47.14 5.78 50.44 8.01 53.22 10.79H53.21Z" fill="#0A0B1A" stroke="#ADFFDA" stroke-width="3" stroke-miterlimit="10" stroke-linejoin="round"/>
<path d="M23.36 11.22C20.62 12.36 18.14 14.03 16.09 16.1C14.02 18.17 12.34 20.66 11.2 23.42L4.27002 20.55C5.78002 16.86 8.02002 13.56 10.79 10.79C13.54 8.04004 16.82 5.81004 20.48 4.29004L23.36 11.22Z" fill="#0A0B1A" stroke="#ADFFDA" stroke-width="3" stroke-miterlimit="10" stroke-linejoin="round"/>
<path d="M9.5 32C9.5 33.15 9.59 34.28 9.76 35.38L2.33 36.49C2.11 35.03 2 33.53 2 32C2 27.95 2.81 24.08 4.27 20.55L11.2 23.42C10.1 26.06 9.5 28.97 9.5 32Z" fill="#0A0B1A" stroke="#ADFFDA" stroke-width="3" stroke-miterlimit="10" stroke-linejoin="round"/>
<path d="M11.15 40.45C11 40.56 10.88 40.7 10.75 40.83V40.85C8.89995 42.68 7.31995 44.73 6.03996 47C5.37996 45.89 4.78996 44.72 4.29996 43.52C3.36996 41.3 2.69996 38.95 2.32996 36.49L9.75995 35.38C10.02 37.14 10.5 38.84 11.15 40.45Z" fill="#00FF00" stroke="#ADFFDA" stroke-width="3" stroke-miterlimit="10" stroke-linejoin="round"/>
<path d="M57.96 47C56.66 49.28 55.05 51.36 53.21 53.21H53.2C50.44 55.97 47.17 58.19 43.51 59.7C39.96 61.19 36.08 62 32 62C27.92 62 24.07 61.19 20.54 59.73C16.87 58.2 13.57 55.98 10.8 53.21C8.96005 51.36 7.35005 49.28 6.05005 47C7.33005 44.73 8.91005 42.68 10.76 40.85V40.83C10.89 40.7 11.01 40.56 11.16 40.45C10.51 38.84 10.03 37.14 9.77005 35.38C9.60005 34.28 9.51005 33.15 9.51005 32C9.51005 28.97 10.11 26.06 11.21 23.42C12.35 20.66 14.03 18.17 16.1 16.1C18.15 14.03 20.63 12.36 23.37 11.22C26.03 10.11 28.95 9.5 32.01 9.5C35.07 9.5 37.95 10.1 40.59 11.2C43.35 12.33 45.84 14.01 47.91 16.1C49.98 18.17 51.66 20.63 52.79 23.38C53.9 26.03 54.51 28.94 54.51 32C54.51 35.06 53.93 37.83 52.86 40.45C52.98 40.55 53.08 40.65 53.19 40.76C55.05 42.62 56.67 44.7 57.97 47H57.96Z" fill="#0A0B1A" fill-opacity="0.75" stroke="#ADFFDA" stroke-width="3" stroke-miterlimit="10" stroke-linejoin="round"/>
<path d="M23.668 53C23.54 53 23.428 52.956 23.332 52.868C23.244 52.772 23.2 52.66 23.2 52.532V44.096C23.2 43.968 23.244 43.86 23.332 43.772C23.428 43.676 23.54 43.628 23.668 43.628C23.796 43.628 23.904 43.676 23.992 43.772C24.088 43.86 24.136 43.968 24.136 44.096V48.176L28.516 43.796C28.58 43.732 28.64 43.688 28.696 43.664C28.752 43.64 28.816 43.628 28.888 43.628C29.032 43.628 29.14 43.672 29.212 43.76C29.284 43.848 29.316 43.956 29.308 44.084C29.308 44.204 29.26 44.32 29.164 44.432L25.876 47.72L29.2 52.256C29.272 52.36 29.3 52.472 29.284 52.592C29.276 52.704 29.232 52.8 29.152 52.88C29.072 52.96 28.976 53 28.864 53C28.688 53 28.556 52.932 28.468 52.796L25.204 48.38L24.136 49.46V52.532C24.136 52.66 24.088 52.772 23.992 52.868C23.904 52.956 23.796 53 23.668 53ZM39.448 53C39.312 53 39.2 52.96 39.112 52.88C39.024 52.792 38.98 52.68 38.98 52.544V49.088C38.98 48.52 38.832 48.072 38.536 47.744C38.24 47.408 37.86 47.24 37.396 47.24C36.9 47.24 36.492 47.408 36.172 47.744C35.86 48.072 35.708 48.512 35.716 49.064H34.888C34.896 48.528 35.012 48.056 35.236 47.648C35.46 47.24 35.768 46.924 36.16 46.7C36.552 46.476 36.996 46.364 37.492 46.364C37.964 46.364 38.38 46.476 38.74 46.7C39.108 46.924 39.392 47.24 39.592 47.648C39.8 48.056 39.904 48.536 39.904 49.088V52.544C39.904 52.68 39.86 52.792 39.772 52.88C39.692 52.96 39.584 53 39.448 53ZM31.048 53C30.904 53 30.788 52.96 30.7 52.88C30.62 52.792 30.58 52.68 30.58 52.544V46.904C30.58 46.768 30.62 46.656 30.7 46.568C30.788 46.48 30.904 46.436 31.048 46.436C31.184 46.436 31.292 46.48 31.372 46.568C31.46 46.656 31.504 46.768 31.504 46.904V52.544C31.504 52.68 31.46 52.792 31.372 52.88C31.292 52.96 31.184 53 31.048 53ZM35.26 53C35.124 53 35.012 52.96 34.924 52.88C34.836 52.792 34.792 52.68 34.792 52.544V49.088C34.792 48.52 34.644 48.072 34.348 47.744C34.052 47.408 33.672 47.24 33.208 47.24C32.712 47.24 32.304 47.404 31.984 47.732C31.664 48.052 31.504 48.472 31.504 48.992H30.844C30.86 48.48 30.972 48.028 31.18 47.636C31.396 47.236 31.688 46.924 32.056 46.7C32.424 46.476 32.84 46.364 33.304 46.364C33.776 46.364 34.192 46.476 34.552 46.7C34.92 46.924 35.204 47.24 35.404 47.648C35.612 48.056 35.716 48.536 35.716 49.088V52.544C35.716 52.68 35.672 52.792 35.584 52.88C35.504 52.96 35.396 53 35.26 53Z" fill="#FFFFFA"/>
<path d="M31.8586 39C30.7066 39 29.6746 38.736 28.7626 38.208C27.8506 37.664 27.1226 36.936 26.5786 36.024C26.0506 35.096 25.7866 34.056 25.7866 32.904C25.7866 32.632 25.8746 32.408 26.0506 32.232C26.2266 32.056 26.4426 31.968 26.6986 31.968C26.9706 31.968 27.1946 32.056 27.3706 32.232C27.5626 32.408 27.6586 32.632 27.6586 32.904C27.6586 33.704 27.8426 34.424 28.2106 35.064C28.5786 35.704 29.0746 36.208 29.6986 36.576C30.3386 36.944 31.0586 37.128 31.8586 37.128C32.6586 37.128 33.3786 36.944 34.0186 36.576C34.6586 36.208 35.1626 35.704 35.5306 35.064C35.8986 34.424 36.0826 33.704 36.0826 32.904C36.0826 32.104 35.8986 31.384 35.5306 30.744C35.1626 30.104 34.6586 29.6 34.0186 29.232C33.3786 28.864 32.6586 28.68 31.8586 28.68H27.6586C27.3866 28.68 27.1626 28.592 26.9866 28.416C26.8106 28.224 26.7226 28 26.7226 27.744V21.168C26.7226 20.912 26.8106 20.696 26.9866 20.52C27.1626 20.328 27.3866 20.232 27.6586 20.232H36.0826C36.3386 20.232 36.5546 20.328 36.7306 20.52C36.9226 20.696 37.0186 20.912 37.0186 21.168C37.0186 21.424 36.9306 21.648 36.7546 21.84C36.5786 22.016 36.3546 22.104 36.0826 22.104H28.5706V26.808H31.8586C33.0266 26.808 34.0666 27.08 34.9786 27.624C35.8906 28.152 36.6106 28.88 37.1386 29.808C37.6826 30.72 37.9546 31.752 37.9546 32.904C37.9546 34.056 37.6826 35.096 37.1386 36.024C36.6106 36.936 35.8906 37.664 34.9786 38.208C34.0666 38.736 33.0266 39 31.8586 39Z" fill="#FFFFFA"/>
</svg>
